HIERARCHY
ROOT Hips
{
  OFFSET 0 0 0
  CHANNELS 6 Xposition Yposition Zposition Zrotation Yrotation Xrotation
  JOINT LeftThigh
  {
    OFFSET 8.409438 0 -5.917753
    CHANNELS 3 Zrotation Yrotation Xrotation
    JOINT LeftLeg
    {
      OFFSET 0 0 -42.358652
      CHANNELS 3 Zrotation Yrotation Xrotation
      JOINT LeftFoot
      {
        OFFSET 0 0 -39.357303
        CHANNELS 3 Zrotation Yrotation Xrotation
      }
    }
  }
  JOINT RightThigh
  {
    OFFSET -8.409438 0 -5.917753
    CHANNELS 3 Zrotation Yrotation Xrotation
    JOINT RightLeg
    {
      OFFSET 0 0 -42.358652
      CHANNELS 3 Zrotation Yrotation Xrotation
      JOINT RightFoot
      {
        OFFSET 0 0 -39.357303
        CHANNELS 3 Zrotation Yrotation Xrotation
      }
    }
  }
  JOINT SpineLow
  {
    OFFSET 0 0 4.719101
    CHANNELS 3 Zrotation Yrotation Xrotation
    JOINT SpineMid
    {
      OFFSET 0 0 12.899191
      CHANNELS 3 Zrotation Yrotation Xrotation
      JOINT Chest
      {
        OFFSET 0 0 12.899191
        CHANNELS 3 Zrotation Yrotation Xrotation
        JOINT LeftShoulder
        {
          OFFSET 7.550562 1.41573 9.438202
          CHANNELS 3 Zrotation Yrotation Xrotation
          JOINT LeftArm
          {
            OFFSET 9.155056 0 4.247191
            CHANNELS 3 Zrotation Yrotation Xrotation
            JOINT LeftForearm
            {
              OFFSET 0 0 25.771955
              CHANNELS 3 Zrotation Yrotation Xrotation
              JOINT LeftHand
              {
                OFFSET 0 0 25.197169
                CHANNELS 3 Zrotation Yrotation Xrotation
              }
            }
          }
        }
        JOINT RightShoulder
        {
          OFFSET -7.550562 1.41573 9.438202
          CHANNELS 3 Zrotation Yrotation Xrotation
          JOINT RightArm
          {
            OFFSET -9.155056 0 4.247191
            CHANNELS 3 Zrotation Yrotation Xrotation
            JOINT RightForearm
            {
              OFFSET 0 0 -25.771955
              CHANNELS 3 Zrotation Yrotation Xrotation
              JOINT RightHand
              {
                OFFSET 0 0 -25.197169
                CHANNELS 3 Zrotation Yrotation Xrotation
              }
            }
          }
        }
        JOINT Neck
        {
          OFFSET 0 0 15.101124
          CHANNELS 3 Zrotation Yrotation Xrotation
          JOINT Head
          {
            OFFSET 0 0 11.325843
            CHANNELS 3 Zrotation Yrotation Xrotation
            End Site
            {
              OFFSET 0 0 14.157303
            }
          }
        }
      }
    }
  }
}
MOTION
Frames: 17
Frame Time: 0.01
0.0  101.685394  0.0  -5.54351  37.636876  -102.735484  20.663727  -24.379166  -8.269479  -18.251704  13.388658  27.868087  1.692613  2.130542  1.559378  -20.173173  13.422218  4.301839  -12.737141  5.588307  21.036544  3.130192  5.000222  -2.231314  -4.60885  -0.662484  0.838986  -12.621504  -1.643532  2.410133  -12.621504  -1.643532  2.410133  -7.466291  27.48818  1.207913  99.21822  60.12526  -175.741649  -29.835202  14.30205  98.211311  72.189693  -1.48167  -32.4259  24.571834  0.288281  20.653472  16.578236  70.943517  -49.079038  -12.253034  -17.693929  -117.955432  80.825027  -3.447719  1.854999  4.895347  -0.918172  -1.235724  3.669593  -0.698584  -0.919488  
0.0  101.685394  0.0  -5.504476  41.589197  -102.728475  19.110795  -23.971852  -7.645526  -18.92677  12.981252  26.006341  0.72839  2.116948  1.431755  -20.972912  13.533883  5.671634  -14.482591  5.890907  19.498951  2.807436  4.660773  -2.34122  -4.368366  -0.460381  0.77153  -11.954844  -1.114501  2.184166  -11.954845  -1.114501  2.184166  -6.615802  26.07517  1.768649  103.127917  56.071777  -172.007982  -26.598916  13.745557  99.498188  72.116131  -4.838899  -31.195557  23.523857  0.814485  19.213815  7.747274  71.615344  -54.890281  -16.454826  -11.946199  -118.328078  82.713105  -3.696964  7.925192  2.805172  -1.188544  -1.300325  2.101285  -0.897403  -0.969777  
0.0  101.685394  0.0  -5.359141  44.910202  -102.71728  17.378405  -23.437388  -6.8036  -19.184001  12.458253  24.381474  0.030837  2.020837  1.361255  -21.856142  13.861381  6.808751  -15.462391  5.862303  18.243807  2.117137  4.294714  -2.399216  -3.872548  -0.307679  0.756504  -10.594048  -0.717528  2.110996  -10.594049  -0.717528  2.110996  -6.719704  24.711588  2.409954  105.616493  52.769613  -170.611054  -24.275545  14.770366  100.50709  70.764804  -7.521476  -32.599767  21.178671  1.516811  17.469824  0.243361  74.458582  -59.586866  -24.293172  -5.401881  -117.590559  83.242932  -4.305169  15.202698  0.242573  -1.225192  -1.441047  0.179035  -0.919472  -1.080258  
0.0  101.685394  0.0  -4.953653  47.365537  -102.458989  15.973191  -22.604674  -5.904522  -19.485035  11.898066  22.96795  -0.103198  1.808901  1.301351  -22.530416  14.46116  7.47966  -16.055022  5.488401  17.319329  1.262981  4.069946  -2.329576  -3.222374  -0.165257  0.695977  -8.812034  -0.35814  1.920512  -8.812034  -0.35814  1.920512  -6.754617  23.590405  3.783962  105.744667  50.07974  -172.109762  -23.779715  15.56529  101.359472  69.496254  -11.681175  -29.571157  18.32481  2.187637  15.775862  -11.598709  78.348769  -68.160135  -33.478485  0.848683  -115.241413  82.968518  -4.138974  23.846586  -2.397392  -1.045709  -1.405936  -1.800411  -0.778786  -1.058544  
0.0  101.685394  0.0  -4.298623  48.874637  -102.02281  14.708548  -21.61812  -4.79453  -19.348079  11.250094  21.797935  -0.008759  1.445195  1.308634  -23.299163  15.268553  7.695366  -16.435319  5.106632  16.644554  0.803941  4.014783  -2.187252  -2.589538  -0.085456  0.686984  -7.080026  -0.159762  1.884476  -7.080026  -0.159762  1.884475  -6.242388  23.032882  5.161152  105.052916  47.836832  -175.357949  -24.533566  15.783951  101.885424  68.318926  -14.965016  -25.996138  16.25099  3.207549  13.617013  -34.808556  81.730207  -87.652315  -41.410781  6.578988  -112.43508  82.697007  -5.644788  34.635273  -4.249585  -0.655304  -1.492164  -3.188777  -0.481133  -1.123732  
0.0  101.685394  0.0  -3.572513  49.550575  -101.604591  13.579402  -20.633398  -3.479557  -18.510857  10.363384  20.867554  -0.266931  1.045567  1.425662  -24.796873  16.235884  7.509302  -16.261461  4.906239  16.180002  0.977069  4.073943  -2.103987  -2.058607  -0.043996  0.841424  -5.627746  -0.048563  2.301777  -5.627746  -0.048563  2.301777  -4.887645  22.578757  5.814273  104.946323  46.024535  -178.998266  -25.812714  15.714167  101.576124  66.991303  -16.520204  -23.099122  15.166349  4.593524  10.577236  -74.928379  82.87246  -124.193623  -46.383812  12.49234  -108.371633  81.999521  -10.20765  47.826291  -5.271453  -0.273199  -2.055046  -3.954554  -0.187192  -1.543775  
0.0  101.685394  0.0  -2.867373  49.547602  -101.260669  12.317975  -19.716461  -1.989309  -17.10598  9.327098  20.13693  -0.618552  0.829744  1.583119  -26.919538  17.396384  6.931217  -15.569897  4.73801  15.97567  1.78063  4.115481  -2.094527  -1.68167  -0.164556  0.937724  -4.602312  -0.384295  2.573215  -4.602312  -0.384295  2.573216  -2.367823  23.393907  6.932287  106.178347  44.267399  177.109128  -26.889518  14.286055  101.021132  63.783862  -16.932867  -21.829415  15.545776  6.966477  8.634181  -109.562214  80.735794  -155.708555  -48.34665  21.253316  -102.42811  78.986768  -16.449603  60.225892  -5.495754  0.684774  -2.394695  -4.119158  0.535176  -1.790014  
0.0  101.685394  0.0  -2.204082  48.971751  -101.00714  10.841535  -18.99365  -0.557738  -15.565743  8.597203  19.671939  -0.45802  0.831004  1.754013  -27.468813  18.308537  6.94856  -16.175129  4.5973  15.596869  2.845173  4.160391  -2.081969  -1.495385  -0.225243  0.872945  -4.095093  -0.561361  2.399037  -4.095093  -0.561361  2.399037  1.610538  24.286514  9.398802  109.381781  42.795382  172.733059  -26.173798  13.373278  100.806253  60.776102  -17.571223  -22.820316  17.763281  9.220345  8.307662  -126.373699  77.501916  -169.520508  -47.684052  31.800969  -94.968395  76.324666  -21.037705  66.167673  -4.900355  1.466805  -1.963273  -3.670398  1.115944  -1.460722  
0.0  101.685394  0.0  -1.516575  47.665118  -100.689397  9.686635  -18.357507  0.570034  -14.207825  8.187831  19.542704  0.214997  0.976617  1.865316  -29.40408  19.454881  5.985448  -14.629689  4.320602  15.50848  3.800303  4.24489  -2.015816  -1.00471  -0.082727  0.76875  -2.748592  -0.194124  2.104326  -2.748592  -0.194124  2.104326  3.001743  24.40712  11.78346  114.231067  41.545784  167.751918  -26.160671  13.866567  99.305276  57.358587  -19.529213  -22.883373  18.466591  9.860825  8.067025  -136.085538  73.992381  -175.994293  -43.338958  39.969849  -85.937188  79.766577  -22.241094  61.80188  -5.194151  1.355286  -1.273276  -3.892628  1.027379  -0.943472  
0.0  101.685394  0.0  -0.580966  45.923086  -100.16116  8.852354  -17.583172  1.439634  -12.984102  7.922829  19.741931  2.126531  1.076022  2.207253  -31.156701  20.547152  4.850262  -12.778134  4.056491  15.329232  4.718729  4.376997  -1.938325  -0.133826  0.225752  0.666027  -0.359561  0.620699  1.819312  -0.359561  0.620699  1.819312  1.609231  23.483131  14.155305  118.870007  40.277088  163.424097  -27.729857  14.762428  96.346169  52.81384  -23.258672  -21.238461  16.848937  9.893541  8.058522  -141.293525  70.31369  -178.204732  -35.74673  44.096203  -76.367385  86.086477  -21.927425  51.95458  -6.847894  0.546982  -0.564108  -5.135382  0.41662  -0.417011  
0.0  101.685394  0.0  0.420177  43.604296  -99.733189  8.852285  -17.000117  2.226373  -12.083736  7.890327  20.039087  3.147632  1.392602  2.255034  -32.05312  21.507643  3.975466  -10.968857  3.817337  15.078219  5.405248  4.443017  -1.939157  0.807595  0.635059  0.641134  2.2246  1.714097  1.773826  2.2246  1.714097  1.773825  -0.510509  20.946092  15.284821  122.547642  37.630256  159.069978  -30.472534  17.167306  94.118097  49.2125  -25.942503  -19.1568  15.676099  9.337434  7.678273  -150.537765  66.036947  176.178172  -27.14837  44.461322  -67.508804  86.518915  -22.276652  47.928288  -8.577285  -0.76393  -0.035324  -6.432913  -0.572586  -0.037225  
0.0  101.685394  0.0  1.256409  41.160488  -99.47387  9.54764  -16.921935  2.910221  -12.338705  8.68961  19.908508  4.786319  1.481229  2.479524  -32.315145  22.338179  3.380538  -9.308864  3.571916  14.858081  5.80817  4.465632  -2.056213  1.532857  0.925339  0.66101  4.216687  2.486031  1.865438  4.216687  2.48603  1.865438  -0.756692  17.00471  17.487694  126.73402  34.699034  158.108444  -30.974627  19.664396  94.456976  47.488847  -28.168564  -19.075652  16.416929  9.194149  6.863863  -160.856456  62.114684  170.808635  -17.650287  40.463194  -59.491584  82.884074  -20.409543  52.321227  -9.582847  -1.678263  0.170837  -7.186153  -1.261744  0.101823  
0.0  101.685394  0.0  1.841207  38.54885  -99.528099  10.795799  -17.274121  3.592713  -11.933155  9.201634  20.130392  5.377698  1.64925  2.559631  -31.588453  22.992039  3.260931  -8.257527  3.376538  14.630582  6.291474  4.406716  -2.196128  2.147535  1.002469  0.693424  5.901252  2.675828  1.983695  5.901252  2.675828  1.983695  -0.251876  13.876914  19.756173  129.605577  31.01213  158.392752  -31.453733  21.156778  95.027639  46.770475  -29.426226  -18.373361  17.659022  10.661923  6.927575  -171.821207  59.030773  164.383793  -15.686839  37.43159  -55.092031  85.610334  -19.751282  54.288144  -10.098735  -1.934478  0.36629  -7.572176  -1.457384  0.242789  
0.0  101.685394  0.0  2.173383  36.374502  -99.673872  11.933316  -17.602318  3.990973  -11.408732  9.460485  20.581708  5.18914  1.84261  2.475201  -30.546199  23.368913  3.358505  -7.70486  3.237917  14.427006  6.66757  4.304387  -2.327417  2.59392  0.986361  0.739518  7.123068  2.612967  2.125502  7.123068  2.612967  2.125502  0.02086  12.771443  21.065061  131.869965  27.570403  157.961517  -31.508553  20.966588  96.138264  47.1705  -29.495185  -17.666026  18.288802  13.431897  8.233992  178.646777  55.512027  158.477804  -15.76245  37.053654  -51.188669  89.355369  -22.681826  53.29251  -10.392436  -2.062234  0.423462  -7.792061  -1.55441  0.282572  
0.0  101.685394  0.0  2.224456  34.71515  -99.683799  12.981936  -17.662516  3.860632  -10.974494  9.259299  21.156358  5.229343  1.990615  2.560132  -29.465594  23.334966  3.458072  -7.540889  3.092158  14.208866  6.92934  4.235903  -2.394495  2.967609  0.946108  0.71339  8.142348  2.493868  2.063527  8.142348  2.493868  2.063527  0.557045  12.507473  22.613853  133.303996  24.877687  157.544861  -30.879487  19.327081  97.786714  47.486134  -29.368082  -17.374923  18.239022  15.67249  9.268074  171.302241  52.451704  154.331362  -14.916411  36.897233  -45.079673  87.331379  -22.050136  53.271934  -10.965846  -2.352134  0.454858  -8.221482  -1.772939  0.298978  
0.0  101.685394  0.0  2.037356  33.715381  -99.56119  14.019251  -17.55879  3.356075  -10.980114  8.812833  21.642389  5.149106  2.112096  2.63353  -28.6374  22.964893  3.553716  -7.744756  2.996973  13.924775  7.092845  4.173685  -2.393475  3.289025  1.002751  0.726617  9.023863  2.636062  2.119207  9.023863  2.636062  2.119207  1.634177  11.181137  23.655839  132.961395  21.95622  158.134575  -30.111185  18.029066  99.477758  49.110535  -30.763596  -18.436235  17.227844  15.761935  8.995004  169.000451  50.454291  153.694153  -14.762868  35.094527  -41.062011  83.107199  -19.083803  54.03626  -11.883297  -3.179171  0.188255  -8.909203  -2.389109  0.079304  
0.0  101.685394  0.0  1.385167  33.826834  -99.401041  14.720575  -17.619242  2.481556  -11.731161  8.382553  21.780743  5.242941  2.143099  2.789515  -28.588586  22.179314  3.620597  -8.270247  2.969089  13.627455  7.134042  4.081268  -2.341693  3.298707  1.106786  0.715352  9.053994  2.921  2.103277  9.053995  2.921  2.103277  3.347629  9.846317  24.140527  132.453069  19.597717  159.242527  -28.837553  20.26392  101.330363  56.667434  -31.323702  -21.666451  15.970971  14.677476  8.583512  172.730045  50.878218  156.639699  -16.645995  33.62293  -40.672231  81.705372  -17.426778  53.748913  -12.437673  -4.287169  -0.060106  -9.324315  -3.215731  -0.132539  
